# xmcd CD database file generated by Grip 3.0.7
# 
# Track frame offsets:
#       150
#       14105
#       28150
#       43629
#       54730
#       69709
#       83680
#       97637
#       111554
#       125863
#       138897
#       151186
#       164107
#       179453
#       193387
#       206969
#       221911
#       236468
#       249960
#       264444
#       277811
#       292837
# 
# Disc length: 4105 seconds
# 
# Revision: 1
# Processed by: cddbd v1.5.1PL0 Copyright (c) Steve Scherf et al.
# Submitted via: Grip 3.0.7
# 
DISCID=50100716
DTITLE=Louis Armstrong - The Complete Decca Studio Master Takes 1940-1949  (D
DTITLE=isc 2)
DYEAR=2000
DGENRE=Jazz
TTITLE0=Hey Lawdy Mama
TTITLE1=I'll Get Mine Bye And Bye
TTITLE2=Now Do You Call That A Buddy
TTITLE3=Yes Suh!
TTITLE4=(When It's) Sleepy Time Down South
TTITLE5=Leap Frog
TTITLE6=I Used To Love You (But It's All Over Now)
TTITLE7=(I'll Be Glad When You're Dead) You Rascal You
TTITLE8=(Get Some) Cash For You Trash
TTITLE9=Among My Souvenirs
TTITLE10=Coquette
TTITLE11=I Never Knew
TTITLE12=Jodie Man
TTITLE13=I Wonder
TTITLE14=You Won't Be Satisfied
TTITLE15=The Frim Fram Sauce
TTITLE16=Maybe It's Becouse
TTITLE17=I'll Keep The Lovelight Burning (In My Heart)
TTITLE18=That Lucky Old Sun
TTITLE19=Blueberry Hill
TTITLE20=You Can't Lose A Broken Heart
TTITLE21=My Sweet Hunk O'Trash
EXTD=
EXTT0=
EXTT1=
EXTT2=
EXTT3=
EXTT4=
EXTT5=
EXTT6=
EXTT7=
EXTT8=
EXTT9=
EXTT10=
EXTT11=
EXTT12=
EXTT13=
EXTT14=
EXTT15=
EXTT16=
EXTT17=
EXTT18=
EXTT19=
EXTT20=
EXTT21=
PLAYORDER=
